<svg id="visual" viewBox="0 0 900 450" width="900" height="450" xmlns="http://www.w3.org/2000/svg" xmlns:xlink="http://www.w3.org/1999/xlink" version="1.1"><path d="M0 302L21.5 302.8C43 303.7 86 305.3 128.8 308.8C171.7 312.3 214.3 317.7 257.2 311.8C300 306 343 289 385.8 282.5C428.7 276 471.3 280 514.2 282.3C557 284.7 600 285.3 642.8 291.3C685.7 297.3 728.3 308.7 771.2 312.3C814 316 857 312 878.5 310L900 308L900 451L878.5 451C857 451 814 451 771.2 451C728.3 451 685.7 451 642.8 451C600 451 557 451 514.2 451C471.3 451 428.7 451 385.8 451C343 451 300 451 257.2 451C214.3 451 171.7 451 128.8 451C86 451 43 451 21.5 451L0 451Z" fill="#ffffff"></path><path d="M0 303L21.5 309C43 315 86 327 128.8 328.2C171.7 329.3 214.3 319.7 257.2 313.5C300 307.3 343 304.7 385.8 311.8C428.7 319 471.3 336 514.2 340.5C557 345 600 337 642.8 334.7C685.7 332.3 728.3 335.7 771.2 331.8C814 328 857 317 878.5 311.5L900 306L900 451L878.5 451C857 451 814 451 771.2 451C728.3 451 685.7 451 642.8 451C600 451 557 451 514.2 451C471.3 451 428.7 451 385.8 451C343 451 300 451 257.2 451C214.3 451 171.7 451 128.8 451C86 451 43 451 21.5 451L0 451Z" fill="#d3def6"></path><path d="M0 369L21.5 367C43 365 86 361 128.8 360.3C171.7 359.7 214.3 362.3 257.2 360.3C300 358.3 343 351.7 385.8 348.5C428.7 345.3 471.3 345.7 514.2 343.8C557 342 600 338 642.8 339.8C685.7 341.7 728.3 349.3 771.2 355.3C814 361.3 857 365.7 878.5 367.8L900 370L900 451L878.5 451C857 451 814 451 771.2 451C728.3 451 685.7 451 642.8 451C600 451 557 451 514.2 451C471.3 451 428.7 451 385.8 451C343 451 300 451 257.2 451C214.3 451 171.7 451 128.8 451C86 451 43 451 21.5 451L0 451Z" fill="#a6beec"></path><path d="M0 399L21.5 398.7C43 398.3 86 397.7 128.8 395C171.7 392.3 214.3 387.7 257.2 386.5C300 385.3 343 387.7 385.8 388.8C428.7 390 471.3 390 514.2 390C557 390 600 390 642.8 389.2C685.7 388.3 728.3 386.7 771.2 387.8C814 389 857 393 878.5 395L900 397L900 451L878.5 451C857 451 814 451 771.2 451C728.3 451 685.7 451 642.8 451C600 451 557 451 514.2 451C471.3 451 428.7 451 385.8 451C343 451 300 451 257.2 451C214.3 451 171.7 451 128.8 451C86 451 43 451 21.5 451L0 451Z" fill="#739fe2"></path><path d="M0 397L21.5 398.3C43 399.7 86 402.3 128.8 403.2C171.7 404 214.3 403 257.2 402.8C300 402.7 343 403.3 385.8 404C428.7 404.7 471.3 405.3 514.2 407.5C557 409.7 600 413.3 642.8 411.8C685.7 410.3 728.3 403.7 771.2 404.3C814 405 857 413 878.5 417L900 421L900 451L878.5 451C857 451 814 451 771.2 451C728.3 451 685.7 451 642.8 451C600 451 557 451 514.2 451C471.3 451 428.7 451 385.8 451C343 451 300 451 257.2 451C214.3 451 171.7 451 128.8 451C86 451 43 451 21.5 451L0 451Z" fill="#2682d8"></path></svg>